PathFileType	4	(X/Y/Z)	C:/Users/beibeiliu/ov580/test_trc/User3\sequence.51_training_dense_right.trc
DataRate	CameraRate	NumFrames	NumMarkers	Units	OrigDataRate	OrigDataStartFrame	OrigNumFrames
120	120	12	19	mm	120	67	100
Frame#	Time	ThumbCMC			ThumbMCP			ThumbIP			ThumbTip			IndexMCP			IndexPIP			IndexTip			MiddleMCP			MiddlePIP			MiddleTip			RingMCP			RingPIP			RingTip			PinkyMCP			PinkyPIP			PinkyTip			BackHand1			BackHand2			BackHand3	
		X0	Y0	Z0	X1	Y1	Z1	X2	Y2	Z2	X3	Y3	Z3	X4	Y4	Z4	X5	Y5	Z5	X6	Y6	Z6	X7	Y7	Z7	X8	Y8	Z8	X9	Y9	Z9	X10	Y10	Z10	X11	Y11	Z11	X12	Y12	Z12	X13	Y13	Z13	X14	Y14	Z14	X15	Y15	Z15	X16	Y16	Z16	X17	Y17	Z17	X18	Y18	Z18	
66	0.55	93.3561	20.0643	84.9538	79.1993	9.83303	55.2112	77.6077	4.7174	21.3937	98.9701	-1.48513	7.14847	97.1574	46.0893	14.7666	83.0254	20.6241	3.33723	90.5168	6.07736	36.46	115.285	38.0726	7.84258	102.893	7.22948	2.17987	110.084	-0.634489	42.3033	129.994	23.4483	7.2133	120.06	-5.78382	13.2393	119.961	-5.81698	44.0478	146.892	16.26	13.7774	133.831	-6.4903	15.1172	135.998	-10.1931	47.8201	155.485	44.828	58.1152	159.379	31.724	89.0193	125.416	46.3975	83.7422	
67	0.558333	92.1927	18.2909	83.9503	78.3508	8.42285	53.8663	77.4572	3.24376	22.5526	90.5492	-5.02543	3.92484	98.3277	46.0607	11.4067	84.6099	21.1493	-4.45907	91.4237	0.156083	20.7985	112.792	38.0493	1.14855	106.125	10.4871	-9.43806	108.85	-9.25005	24.3068	135.843	27.5434	6.63098	123.76	-0.953976	-0.938559	121.932	-11.2156	31.0154	153.087	15.7039	11.5237	134.433	-7.98298	9.30768	134.156	-16.3521	36.518	153.106	42.32	59.8633	161.18	31.8041	90.0421	121.53	46.969	79.1917	
68	0.566667	92.6506	14.3	81.0307	78.1659	4.01823	55.492	66.4777	-4.69708	24.443	78.3713	-11.941	1.6188	99.43	43.6655	9.41975	89.7432	26.1543	-17.2441	86.1298	-4.28768	-2.73206	118.809	41.1372	-5.67583	110.526	18.165	-23.4345	108.685	-15.3615	-2.53034	140.09	30.9198	0.319335	128.988	7.67517	-16.4708	121.373	-17.4863	7.8796	156.397	19.0401	8.51392	146.265	1.06295	-5.67898	133.171	-21.3192	15.0269	149.81	41.0481	57.3115	157.953	33.6227	83.4888	123.928	43.367	73.2653	
69	0.575	96.2566	14.2537	75.9027	77.4989	2.53631	56.1146	63.9638	-6.62881	26.0861	67.1413	-17.1334	7.34446	94.5487	40.4418	3.52302	85.3367	26.2322	-21.9205	82.1224	-4.7975	-24.2291	118.269	40.8915	-5.15197	109.056	23.9162	-31.2568	109.373	-15.1772	-31.0162	141.654	32.1516	0.843397	133.329	17.0369	-24.6572	129.366	-17.9878	-21.6645	158.459	19.9011	7.10745	159.625	3.7882	-12.4698	145.613	-21.5854	-11.5285	152.156	39.1937	51.1727	154.314	33.9879	84.2943	120.185	39.8458	73.8276	
70	0.583333	95.6821	11.9523	78.6301	75.5752	-0.167006	55.9776	56.5345	-10.2369	32.6624	55.1305	-20.7626	11.0797	94.5949	34.2208	0.119519	80.7593	23.4408	-23.0979	73.3286	-5.3562	-37.0069	121.286	35.9018	-6.40073	108.25	25.8011	-32.578	106.102	-6.42235	-50.2196	138.684	28.0439	0.0722164	134.647	19.3456	-27.9302	127.461	-8.79374	-42.5294	160.567	16.7799	7.11299	162.595	2.90279	-15.8902	154.688	-14.8572	-27.6241	150.586	34.4587	47.9203	154.513	32.8587	77.3809	120.846	40.5539	68.5479	
71	0.591667	92.5501	12.4717	76.6799	69.6506	0.612559	59.9293	56.1293	-10.584	33.5366	45.9136	-22.1361	13.5071	90.3963	30.0364	1.57596	79.7142	20.4213	-25.4104	68.0256	4.67893	-41.4666	114.852	32.4525	-9.94226	108.046	25.6155	-34.673	100.303	0.248353	-62.8047	138.172	24.6746	-3.18606	139.364	17.7074	-28.3868	131.734	-1.72568	-54.226	162.037	11.4613	10.3327	164.685	5.65531	-11.9605	165.878	-9.37332	-30.2616	149.233	34.8665	49.1924	152.357	33.1088	80.7563	118.071	36.4704	69.4194	
72	0.6	93.2396	13.4874	77.6768	69.6487	2.16783	55.1352	53.3886	-8.00424	33.1577	42.7129	-19.3808	15.6106	93.852	28.2409	0.696247	78.8545	22.2473	-27.729	69.2417	11.3538	-48.7415	118.693	30.6567	-11.1379	114.407	26.3998	-39.0108	105.005	13.932	-66.3894	140.282	23.2593	-2.5715	138.4	19.6568	-31.3205	141.508	8.04534	-57.497	162.075	9.80896	10.3209	168.923	2.54755	-14.534	178.659	-6.32009	-34.5138	148.59	33.4232	46.426	153.872	33.849	72.447	115.337	37.3326	61.3895	
73	0.608333	94.7339	15.169	70.0335	69.546	4.58803	55.1751	55.0791	-6.04682	32.5747	42.675	-14.871	16.0959	96.122	27.9687	-3.92897	80.3489	24.7908	-26.6244	72.8344	21.1702	-48.6683	123.365	30.3911	-13.3759	120.292	27.8377	-38.0389	113.69	22.2916	-69.8987	145.106	21.8266	-4.26777	150.439	20.8588	-32.5289	150.966	14.5779	-58.8313	168.717	6.55778	8.85277	179.371	0.344364	-11.7087	188.511	-3.6695	-33.9169	149.378	30.4326	41.3817	154.991	32.8888	72.8201	119.403	36.5625	60.6223	
74	0.616667	100.788	16.8065	67.0411	78.4824	7.01513	46.8079	61.0341	-1.80937	28.569	48.693	-11.2581	10.456	104.642	28.9116	-8.04616	91.1775	28.4215	-32.9094	86.635	26.1629	-54.7586	132.375	30.6494	-17.114	131.789	29.7884	-44.1655	128.031	28.0737	-72.2385	155.471	21.7223	-6.11644	160.705	20.2778	-36.5662	162.991	17.6102	-57.5343	176.608	5.82406	7.61383	187.737	-0.213321	-14.2259	195.888	-4.25144	-33.9128	159.771	30.2766	37.5391	161.578	33.4029	70.8118	126.979	39.0354	52.4403	
75	0.625	108.164	16.9873	63.2468	86.209	7.62745	46.6868	68.4184	-1.31503	26.4128	53.5198	-9.516	6.33635	114.962	26.8368	-13.0969	103.803	25.7823	-35.7561	94.5756	25.9825	-57.5874	142.204	28.5664	-15.7373	140.414	28.476	-46.5287	139.372	25.7885	-78.8767	167.827	18.6099	-12.0778	169.649	18.3278	-32.2926	175.407	13.4162	-59.5841	186.271	2.85826	8.52746	197.02	-3.14222	-8.57705	209.065	-7.843	-30.5926	169.716	28.0619	36.8313	170.413	30.6582	68.6529	135.052	39.3647	50.1949	
76	0.633333	120.36	12.0575	62.3091	98.4365	2.75187	38.3401	82.8795	-6.41529	19.5972	66.9248	-13.9578	4.06444	132.878	21.2401	-12.4601	116.921	20.2439	-36.071	112.445	18.52	-64.5064	157.075	22.3528	-19.2112	157.673	21.2288	-47.2655	153.79	18.3241	-76.3121	179.154	11.8482	-9.16935	186.455	10.6849	-36.4435	190.922	5.52331	-59.7321	197.946	-2.86678	7.58231	209.27	-8.38499	-9.20577	220.188	-12.5577	-32.0031	179.336	22.0151	41.1064	184.743	26.9983	65.471	149.391	32.7232	53.618	
77	0.641667	125.999	10.3725	60.656	109.62	-1.12373	40.1983	91.1953	-7.67401	18.5997	76.7881	-16.3007	1.43931	135.08	20.1004	-16.0607	126.461	16.6792	-38.7489	122.669	15.216	-63.4111	166.894	19.3878	-20.2851	163.059	18.412	-45.8489	166.003	14.4621	-77.2272	192.068	9.77626	-12.7251	191.782	8.38036	-33.5863	197.164	4.07086	-58.1202	209.889	-6.1656	9.557	220.503	-12.1729	-9.84287	231.474	-18.7158	-31.1789	187.152	19.4985	38.2667	191.205	22.7236	66.0253	158.59	29.0505	50.7867	
